<svg width="6" height="10" viewBox="0 0 6 10" fill="none" xmlns="http://www.w3.org/2000/svg">
<path d="M5.33841 9.67603C5.29092 9.67605 5.24388 9.66671 5.2 9.64855C5.15611 9.6304 5.11623 9.60377 5.08264 9.5702L0.625466 5.11279C0.557675 5.04498 0.519592 4.95302 0.519592 4.85713C0.519592 4.76125 0.557675 4.66929 0.625466 4.60148L5.08264 0.144067C5.11621 0.110478 5.15607 0.0838309 5.19994 0.0656466C5.24381 0.0474623 5.29084 0.0380971 5.33833 0.0380859C5.38582 0.0380748 5.43285 0.0474177 5.47673 0.0655814C5.52061 0.083745 5.56048 0.110374 5.59407 0.143947C5.62766 0.17752 5.6543 0.21738 5.67249 0.261252C5.69067 0.305124 5.70004 0.352147 5.70005 0.399638C5.70006 0.447129 5.69072 0.494157 5.67255 0.538038C5.65439 0.581918 5.62776 0.621791 5.59419 0.65538L1.39256 4.85701L5.59419 9.05864C5.64479 9.10922 5.67926 9.17366 5.69323 9.24383C5.70719 9.314 5.70003 9.38673 5.67265 9.45282C5.64527 9.51892 5.59889 9.57541 5.5394 9.61514C5.4799 9.65487 5.40995 9.67606 5.33841 9.67603Z" fill="#111111"/>
</svg>
